<?xml version="1.0" standalone="no"?>
<!DOCTYPE svg PUBLIC "-//W3C//DTD SVG 20010904//EN"
 "http://www.w3.org/TR/2001/REC-SVG-20010904/DTD/svg10.dtd">
<svg version="1.0" xmlns="http://www.w3.org/2000/svg"
 width="5433.000000pt" height="5433.000000pt" viewBox="0 0 5433.000000 5433.000000"
 preserveAspectRatio="xMidYMid meet">

<g transform="translate(0.000000,5433.000000) scale(0.100000,-0.100000)"
fill="#000000" stroke="none">
<path d="M26360 54319 c-6113 -179 -11926 -2386 -16622 -6311 -1228 -1026
-2390 -2188 -3416 -3416 -4103 -4909 -6322 -11026 -6322 -17427 0 -2066 232
-4123 691 -6120 1366 -5940 4719 -11266 9509 -15101 4257 -3409 9432 -5451
14855 -5864 783 -59 1220 -75 2110 -75 889 0 1344 16 2110 75 4105 316 8053
1549 11598 3624 3714 2174 6868 5205 9192 8836 1058 1653 1957 3467 2625 5300
1089 2988 1640 6120 1640 9325 0 3700 -737 7310 -2179 10684 -1677 3921 -4283
7422 -7566 10165 -4924 4114 -11075 6335 -17485 6314 -256 0 -589 -5 -740 -9z
m1690 -589 c1899 -67 3680 -312 5470 -751 4264 -1045 8203 -3141 11480 -6109
609 -551 1279 -1219 1825 -1820 4090 -4496 6502 -10198 6869 -16240 65 -1066
65 -2224 0 -3290 -365 -6009 -2750 -11677 -6802 -16167 -546 -605 -1244 -1305
-1847 -1854 -4366 -3969 -9886 -6365 -15735 -6828 -1241 -99 -2551 -111 -3790
-35 -5157 313 -10092 2121 -14235 5214 -1357 1013 -2646 2182 -3780 3430
-3783 4158 -6138 9360 -6754 14915 -116 1042 -161 1873 -161 2965 0 617 8 953
35 1460 326 6064 2715 11809 6789 16330 572 634 1332 1394 1966 1966 2401
2164 5176 3873 8180 5039 2759 1071 5677 1667 8680 1774 321 12 1496 12 1810
1z"/>
<path d="M25925 52148 c-313 -32 -571 -61 -574 -64 -3 -2 36 -408 87 -901 54
-527 88 -900 82 -903 -11 -7 -1459 -154 -1464 -149 -2 2 -45 409 -95 904 -51
494 -93 900 -94 901 -4 4 -1150 -116 -1155 -121 -6 -5 456 -4560 466 -4596 l7
-25 575 59 c316 32 576 60 577 61 2 2 -40 423 -92 936 -52 513 -94 934 -92
936 7 7 1463 152 1468 146 4 -4 49 -423 100 -930 52 -508 96 -927 99 -931 4
-7 1149 105 1156 112 2 1 -103 1037 -232 2302 -128 1265 -234 2306 -234 2313
0 6 -3 11 -7 11 -5 -1 -264 -28 -578 -61z"/>
<path d="M28286 52148 c-2 -7 -108 -1032 -235 -2278 -127 -1246 -234 -2281
-237 -2300 l-5 -35 576 -59 c316 -32 579 -56 583 -52 4 4 41 340 83 747 42
406 78 742 81 745 4 3 121 -6 260 -20 765 -78 1190 19 1519 344 153 152 243
298 322 526 107 308 147 735 97 1029 -108 633 -582 1070 -1280 1179 -52 9
-448 51 -880 96 -432 44 -806 82 -832 86 -36 4 -49 2 -52 -8z m1279 -1034
c332 -46 533 -196 591 -441 12 -52 15 -99 11 -198 -9 -216 -63 -361 -177 -475
-151 -151 -329 -188 -710 -145 l-55 6 66 637 c37 350 67 638 68 639 1 3 66 -4
206 -23z"/>
<path d="M32367 51598 c-163 -574 -238 -851 -231 -857 5 -4 230 -70 499 -145
270 -76 492 -139 494 -142 2 -2 -221 -803 -497 -1781 -276 -977 -499 -1779
-497 -1781 9 -9 1120 -319 1122 -313 1 3 225 798 498 1766 272 968 499 1767
503 1776 6 14 71 -2 504 -124 274 -77 500 -138 503 -135 8 8 258 898 254 903
-4 3 -3125 885 -3134 885 -2 0 -10 -24 -18 -52z"/>
<path d="M19885 51065 c-852 -259 -1549 -476 -1548 -481 5 -31 266 -881 272
-887 5 -4 230 60 502 142 271 83 496 147 500 143 3 -4 246 -797 538 -1762 293
-965 536 -1758 540 -1763 9 -9 1117 327 1114 339 0 5 -240 794 -531 1754 -292
960 -532 1753 -534 1764 -3 16 55 36 492 169 272 82 496 151 498 152 7 6 -273
905 -282 904 -6 -1 -708 -214 -1561 -474z"/>
<path d="M39100 48699 c-397 -44 -756 -171 -1061 -375 -357 -238 -662 -598
-873 -1029 -121 -247 -193 -470 -232 -725 -25 -158 -25 -481 -1 -640 56 -368
178 -696 365 -979 384 -583 1123 -1038 1822 -1121 117 -14 417 -14 525 0 104
13 298 49 313 58 8 5 -24 162 -110 538 l-122 531 -74 -24 c-129 -41 -243 -56
-387 -50 -227 9 -417 74 -636 219 -374 247 -563 596 -562 1033 1 217 46 399
154 622 257 528 725 853 1227 853 192 0 358 -41 544 -135 357 -180 588 -457
684 -822 14 -54 27 -99 29 -101 1 -2 1011 242 1036 251 4 1 -4 42 -16 90 -75
287 -209 561 -398 812 -91 121 -324 348 -469 456 -366 274 -765 450 -1173 520
-140 23 -451 33 -585 18z"/>
<path d="M14360 48465 c-434 -60 -845 -240 -1245 -544 -122 -93 -380 -347
-462 -456 -194 -258 -321 -520 -398 -819 -60 -236 -70 -323 -70 -601 1 -191 5
-273 18 -350 78 -442 265 -844 570 -1225 391 -488 902 -774 1537 -861 123 -17
469 -18 585 -1 276 40 516 114 764 237 294 147 539 324 757 546 423 434 632
948 660 1626 12 293 -29 542 -133 818 -47 125 -160 350 -241 478 -95 151 -223
317 -242 313 -9 -1 -462 -301 -1008 -665 -675 -450 -990 -665 -986 -674 31
-52 485 -727 489 -727 3 0 228 149 501 331 273 182 498 329 500 327 12 -12 34
-211 34 -309 0 -309 -103 -558 -324 -787 -202 -209 -443 -354 -696 -418 -60
-15 -110 -19 -250 -19 -159 0 -184 3 -273 28 -256 71 -443 180 -627 366 -219
221 -386 508 -455 781 -112 444 9 878 328 1175 262 244 608 382 908 361 104
-7 262 -42 348 -76 30 -11 54 -19 55 -18 12 18 295 1093 289 1099 -12 11 -192
46 -326 64 -144 18 -472 19 -607 0z"/>
<path d="M41655 44685 c-891 -910 -1620 -1659 -1620 -1665 0 -5 187 -193 415
-416 l414 -405 82 83 c45 46 339 346 654 668 315 322 577 587 582 589 5 2 125
-111 266 -250 141 -140 377 -372 524 -517 l266 -262 -659 -673 -659 -672 412
-407 c227 -224 418 -407 423 -407 15 -1 3257 3308 3253 3320 -6 19 -823 810
-833 807 -6 -2 -294 -292 -640 -645 l-629 -642 -115 109 c-64 61 -302 293
-529 517 l-413 408 635 648 c350 357 636 650 636 651 0 7 -831 816 -837 816
-4 -1 -737 -745 -1628 -1655z"/>
<path d="M26385 45929 c-1974 -81 -3938 -475 -5764 -1155 -1705 -636 -3267
-1490 -4726 -2584 -1414 -1059 -2696 -2341 -3755 -3755 -697 -930 -1297 -1902
-1804 -2925 -1117 -2252 -1758 -4660 -1916 -7195 -41 -669 -41 -1631 0 -2300
117 -1873 493 -3659 1135 -5390 1134 -3056 3068 -5790 5575 -7881 3066 -2557
6828 -4061 10800 -4319 420 -27 706 -35 1235 -35 685 0 1134 19 1742 75 3607
332 7005 1686 9868 3934 830 652 1649 1419 2361 2211 1742 1938 3061 4214
3872 6680 544 1653 843 3313 922 5110 13 290 13 1240 0 1530 -59 1353 -240
2604 -560 3865 -1188 4689 -4161 8751 -8285 11321 -1346 839 -2816 1513 -4320
1980 -1580 491 -3177 765 -4860 834 -276 11 -1238 11 -1520 -1z m922 -1384
c305 -72 591 -385 819 -895 131 -294 256 -697 339 -1088 14 -64 27 -127 30
-138 5 -21 5 -21 117 13 713 217 1384 298 1808 217 373 -70 598 -249 671 -531
108 -424 -226 -1039 -931 -1715 -79 -76 -174 -164 -211 -195 -37 -32 -68 -61
-68 -64 -1 -3 50 -51 112 -107 156 -140 464 -454 579 -592 489 -587 648 -1077
462 -1430 -42 -80 -133 -178 -218 -234 -121 -80 -315 -142 -519 -167 -127 -15
-542 -6 -697 15 -286 40 -666 124 -965 215 -71 22 -133 37 -136 33 -3 -4 -14
-45 -23 -92 -89 -433 -250 -933 -402 -1245 -268 -551 -595 -833 -943 -813
-528 31 -986 742 -1255 1950 -25 110 -47 202 -48 203 -2 2 -62 -14 -133 -36
-300 -91 -679 -175 -965 -215 -155 -21 -570 -30 -697 -15 -658 79 -940 464
-757 1033 61 190 205 445 374 663 158 205 471 534 719 756 l84 76 -49 44
c-298 270 -475 450 -648 657 -475 570 -638 1051 -473 1397 179 374 701 515
1497 404 270 -38 638 -121 940 -213 63 -19 115 -34 115 -33 1 1 16 72 34 157
183 858 506 1547 855 1828 83 67 210 134 296 156 72 19 209 19 287 1z m-7452
-7006 c1248 -110 2424 -381 3470 -799 1538 -614 2821 -1555 3731 -2736 59 -77
109 -137 113 -134 3 2 37 45 75 95 929 1216 2228 2170 3801 2790 1115 440
2416 722 3735 809 l85 6 435 -523 c332 -397 432 -524 420 -529 -8 -4 -62 -7
-120 -7 -219 -2 -757 -36 -1120 -71 -1972 -192 -3698 -723 -5113 -1572 -854
-512 -1608 -1164 -2140 -1850 -33 -43 -64 -75 -68 -71 -4 5 -52 66 -108 136
-601 757 -1467 1461 -2457 1996 -1544 836 -3394 1308 -5564 1421 -107 5 -242
10 -300 10 -58 0 -111 4 -119 9 -10 7 86 128 394 497 225 269 422 504 439 522
l31 33 80 -6 c44 -4 179 -15 300 -26z m-835 -2129 c335 -19 711 -50 985 -81
2318 -258 4284 -1016 5795 -2233 467 -376 904 -818 1259 -1274 57 -73 106
-132 109 -132 4 0 20 19 37 43 16 23 82 107 146 187 395 493 879 956 1433
1372 1584 1188 3663 1903 6071 2087 469 36 703 45 1254 45 l545 1 464 -555
c383 -458 460 -556 443 -558 -12 -2 -117 2 -233 8 -573 30 -1549 23 -2158 -15
-2965 -187 -5402 -1070 -7100 -2574 -278 -247 -634 -622 -828 -874 -41 -54
-78 -94 -82 -90 -4 4 -50 62 -102 128 -925 1164 -2401 2127 -4158 2716 -1288
431 -2676 663 -4300 720 -374 13 -1252 7 -1598 -11 -116 -6 -221 -10 -233 -8
-16 2 66 106 447 562 l467 559 576 -6 c317 -3 659 -11 761 -17z m-60 -2194
c538 -32 981 -76 1470 -146 1996 -287 3733 -956 5108 -1967 347 -255 627 -497
937 -807 280 -280 370 -383 664 -755 l27 -34 84 109 c930 1201 2336 2181 4015
2799 1997 734 4319 976 7060 734 l240 -21 31 -32 c61 -61 955 -1138 950 -1144
-3 -3 -104 7 -223 21 -571 70 -1154 119 -1858 158 -307 17 -1400 23 -1740 10
-2490 -96 -4559 -624 -6250 -1594 -894 -513 -1676 -1166 -2225 -1857 -46 -58
-85 -104 -87 -103 -2 1 -31 37 -64 80 -245 318 -630 709 -1005 1023 -964 805
-2196 1439 -3608 1856 -1171 346 -2434 540 -3876 595 -346 13 -1436 7 -1750
-10 -679 -37 -1304 -90 -1843 -157 -114 -14 -215 -24 -224 -22 -11 2 137 186
471 586 268 321 493 585 499 587 16 5 435 42 682 60 251 18 548 34 820 45 326
13 1387 4 1695 -14z m160 -2225 c765 -40 1377 -104 2025 -212 2005 -332 3720
-1042 4980 -2059 206 -167 373 -318 573 -519 l192 -194 -2 -816 -3 -816 -1262
-3 -1263 -2 0 -3230 c0 -1777 -3 -3230 -6 -3230 -14 0 -250 217 -419 385
-1334 1326 -2223 3209 -2770 5865 -20 96 -38 183 -41 193 -5 16 -75 17 -1285
17 l-1280 0 5 -57 c3 -32 8 -128 11 -213 12 -331 50 -730 111 -1148 245 -1700
869 -3363 1806 -4816 1100 -1703 2605 -3034 4208 -3719 663 -283 1299 -452
1972 -522 81 -8 161 -15 178 -15 l30 0 0 4233 0 4234 3241 7 c1783 4 3243 5
3246 2 14 -13 -73 -325 -142 -511 -92 -250 -260 -543 -417 -730 -480 -571
-1137 -866 -2188 -982 -137 -15 -326 -17 -1662 -20 l-1508 -4 0 -3114 0 -3115
30 0 c49 0 313 29 465 51 619 89 1357 318 1935 598 l85 42 5 1662 5 1662 95 2
c1293 30 2327 315 3195 881 1027 669 1752 1710 2149 3082 188 651 308 1419
341 2180 3 69 8 171 11 227 l5 103 -4163 2 -4163 3 -3 813 -2 812 105 113 c58
61 172 174 253 250 1376 1294 3399 2153 5852 2487 503 68 948 108 1585 142
317 17 1484 17 1830 0 926 -45 1730 -121 2630 -248 322 -45 743 -112 756 -119
11 -8 13 -14762 1 -14769 -5 -3 -87 8 -183 24 -984 162 -2013 271 -3119 331
-317 17 -1357 23 -1705 10 -2202 -82 -4048 -493 -5590 -1245 -895 -437 -1606
-933 -2212 -1544 l-203 -204 0 1321 0 1321 -275 0 -275 0 0 -1320 0 -1321
-202 204 c-220 220 -366 351 -595 535 -844 673 -1909 1221 -3103 1597 -1847
580 -4000 781 -6470 604 -773 -55 -1700 -164 -2454 -288 -99 -17 -183 -28
-188 -25 -11 7 -10 14761 1 14768 23 14 788 128 1246 185 843 106 1531 159
2510 195 180 7 1295 -3 1485 -13z m17214 -16326 c140 -37 289 -150 420 -319
77 -100 796 -1161 796 -1175 0 -13 -441 -312 -451 -305 -4 2 -173 249 -375
547 -202 298 -381 559 -398 580 -85 103 -200 142 -281 95 -44 -26 -80 -81 -89
-137 -7 -49 16 -157 50 -222 14 -30 186 -289 380 -576 195 -287 354 -526 354
-531 0 -9 -418 -299 -444 -307 -6 -2 -209 289 -451 647 -242 359 -502 737
-578 841 -102 140 -135 192 -125 198 7 4 96 64 197 133 l185 126 50 -57 c28
-32 63 -71 78 -88 l27 -30 1 30 c0 17 7 62 15 100 64 303 371 520 639 450z
m-17904 -186 c145 -87 249 -156 247 -162 -20 -48 -519 -1164 -558 -1246 -27
-57 -48 -105 -46 -107 1 -2 48 50 103 114 55 64 279 313 498 552 219 239 402
439 406 444 9 9 370 -204 370 -219 0 -26 -418 -1169 -486 -1327 -19 -46 -31
-78 -26 -73 5 6 70 91 145 190 74 99 209 270 299 380 90 111 235 289 322 396
l160 196 230 -139 c127 -76 231 -142 231 -146 0 -5 -337 -340 -748 -745 l-748
-735 -200 119 c-109 66 -199 126 -199 133 0 6 66 201 146 431 134 386 220 614
289 770 30 68 30 68 -96 -80 -84 -99 -552 -586 -742 -773 l-74 -74 -202 122
c-110 67 -201 126 -201 131 0 11 610 1980 617 1992 2 4 6 7 8 7 2 0 117 -68
255 -151z m16390 -683 c0 -2 97 -464 215 -1027 118 -563 215 -1027 215 -1031
0 -15 -444 -230 -457 -222 -14 10 -1413 1554 -1413 1560 0 5 522 266 524 262
2 -2 130 -176 286 -388 157 -212 353 -481 437 -598 84 -117 153 -212 153 -210
0 2 -30 86 -66 188 -81 229 -386 1221 -378 1229 10 11 458 238 472 240 6 0 12
-1 12 -3z m-13916 -707 c149 -55 272 -102 274 -103 3 -4 -254 -1093 -309
-1306 -16 -63 -32 -126 -35 -140 -4 -14 25 30 64 97 78 134 150 252 486 793
125 201 233 370 239 377 9 9 58 -6 207 -62 193 -73 195 -74 192 -102 -13 -124
-200 -1239 -228 -1358 -7 -33 -14 -65 -14 -72 0 -6 53 93 118 220 156 305 571
1067 582 1067 23 0 500 -183 500 -192 0 -5 -267 -393 -592 -861 -326 -468
-596 -854 -599 -859 -4 -7 -434 143 -446 156 -5 4 123 854 148 991 18 96 59
282 75 340 3 11 -25 -34 -62 -100 -37 -66 -90 -156 -117 -200 -67 -108 -535
-806 -553 -824 -11 -12 -43 -4 -226 64 -117 43 -217 82 -221 85 -4 4 44 456
108 1006 126 1089 125 1084 133 1084 2 0 127 -45 276 -101z m10873 -650 c254
-83 480 -409 602 -869 50 -190 64 -290 64 -460 0 -184 -20 -286 -84 -418 -74
-152 -220 -270 -376 -303 -99 -21 -220 9 -310 78 -18 13 -33 20 -33 16 0 -4
57 -212 126 -461 70 -249 125 -454 123 -456 -15 -11 -523 -145 -529 -139 -4 4
-148 512 -320 1128 -172 616 -339 1206 -372 1310 -80 254 -90 286 -86 290 5 4
443 125 454 125 5 0 29 -48 53 -106 l44 -107 17 54 c47 150 145 256 287 309
117 44 225 46 340 9z m-8158 -264 c146 -25 266 -46 267 -48 3 -3 -53 -1169
-64 -1352 -5 -77 -8 -141 -7 -143 1 -1 24 59 50 135 55 161 482 1265 493 1275
8 7 403 -60 414 -70 9 -9 30 -806 32 -1187 l1 -310 66 230 c36 127 135 445
219 708 150 465 155 477 180 477 14 -1 135 -20 270 -44 175 -31 244 -46 242
-55 -1 -7 -194 -440 -429 -962 -309 -690 -430 -949 -442 -949 -9 0 -114 16
-233 37 l-217 36 -5 71 c-15 196 -37 966 -31 1115 l7 166 -50 -140 c-27 -77
-61 -169 -74 -205 -40 -104 -379 -894 -388 -904 -9 -9 -449 62 -464 75 -7 7
-154 1971 -156 2077 0 20 4 23 28 18 15 -3 146 -26 291 -51z m6486 -1149 c-67
-576 -124 -1048 -126 -1051 -10 -10 -492 -76 -499 -68 -14 15 -850 1927 -845
1932 6 6 569 90 574 85 4 -4 301 -919 385 -1189 l65 -210 0 255 c1 335 22
1203 30 1212 7 8 521 87 531 82 3 -1 -49 -473 -115 -1048z m-1842 789 c56 -15
67 -21 67 -39 0 -11 -12 -110 -26 -219 l-27 -199 -31 7 c-17 3 -78 9 -136 11
-91 5 -112 3 -162 -16 -108 -40 -199 -153 -242 -298 -40 -139 -41 -363 -1
-517 39 -148 120 -261 223 -312 71 -35 198 -43 282 -18 102 30 91 47 123 -184
15 -113 26 -210 23 -216 -6 -16 -133 -52 -235 -66 -111 -16 -285 -6 -381 21
-157 44 -292 131 -390 253 -249 307 -302 901 -116 1293 139 292 367 464 684
514 81 13 265 5 345 -15z m5234 -230 c58 -29 141 -112 172 -173 89 -175 59
-365 -74 -461 -178 -127 -395 -58 -499 159 -29 60 -31 73 -31 170 0 94 3 110
27 155 35 66 92 122 153 151 72 34 182 34 252 -1z m-7133 -1131 c64 -22 148
-100 175 -165 35 -81 45 -160 32 -243 -31 -188 -137 -295 -301 -304 -108 -6
-171 20 -244 99 -74 80 -101 162 -94 284 16 241 224 400 432 329z"/>
<path d="M27075 44202 c-79 -27 -139 -67 -210 -139 -218 -220 -431 -691 -591
-1308 -39 -153 -104 -441 -104 -464 0 -5 12 -12 28 -16 75 -19 556 -216 819
-336 l152 -70 58 29 c143 72 580 257 823 348 105 39 115 45 112 66 -10 71 -99
451 -141 600 -155 542 -334 924 -534 1135 -81 85 -145 128 -228 154 -75 23
-119 24 -184 1z"/>
<path d="M24096 42339 c-565 -50 -683 -349 -353 -899 157 -262 498 -642 867
-967 112 -99 115 -101 136 -85 301 231 529 394 791 567 l122 80 6 85 c15 196
56 578 81 748 14 101 24 185 22 187 -2 2 -87 29 -190 59 -432 128 -807 202
-1143 226 -155 11 -209 11 -339 -1z"/>
<path d="M29875 42340 c-321 -25 -716 -105 -1143 -232 -171 -51 -173 -51 -168
-77 22 -104 76 -576 97 -846 7 -96 16 -153 24 -157 119 -70 644 -441 830 -586
l89 -70 31 25 c181 151 537 502 676 668 291 347 441 625 456 845 15 232 -115
361 -418 414 -111 19 -335 27 -474 16z"/>
<path d="M26106 41922 c-8 -25 -53 -369 -66 -502 -6 -63 -12 -125 -14 -137
l-3 -23 31 19 c108 65 305 176 484 272 114 62 211 115 215 119 11 10 -283 134
-575 244 -61 22 -68 23 -72 8z"/>
<path d="M28040 41871 c-170 -67 -460 -188 -467 -195 -2 -2 74 -45 169 -96 95
-51 261 -144 368 -205 107 -62 196 -111 197 -110 9 6 -76 675 -86 674 -3 0
-85 -31 -181 -68z"/>
<path d="M26974 41393 c-301 -152 -635 -338 -895 -499 l-87 -54 -8 -167 c-10
-213 -10 -859 0 -1065 l8 -156 227 -135 c368 -219 905 -507 945 -507 42 0 595
296 948 507 l226 135 8 146 c11 179 8 1033 -3 1156 l-8 88 -115 71 c-273 167
-845 481 -1006 553 l-52 23 -188 -96z m370 -603 c118 -30 208 -82 302 -175
130 -129 197 -288 197 -470 0 -494 -517 -813 -962 -594 -66 32 -103 60 -166
123 -141 139 -199 278 -199 471 0 192 58 331 198 470 170 170 401 234 630 175z"/>
<path d="M25470 40494 c-91 -64 -234 -168 -317 -231 l-153 -114 28 -23 c84
-70 589 -435 602 -436 3 0 5 207 5 460 0 253 0 460 0 460 0 0 -74 -53 -165
-116z"/>
<path d="M28695 40149 c0 -253 2 -459 3 -459 15 0 511 358 604 436 l28 22
-118 90 c-133 101 -331 244 -442 319 l-75 50 0 -458z"/>
<path d="M24669 39874 c-443 -376 -836 -828 -999 -1150 -78 -153 -103 -239
-104 -364 -1 -128 20 -185 94 -254 61 -57 130 -92 249 -124 93 -25 106 -26
371 -26 299 0 387 9 715 75 231 47 745 185 767 207 4 4 -1 66 -12 137 -35 238
-90 769 -90 864 0 12 -58 56 -177 136 -217 144 -436 300 -618 440 -75 58 -137
105 -139 105 -1 0 -27 -21 -57 -46z"/>
<path d="M29585 39910 c-20 -32 -593 -446 -817 -589 -74 -48 -98 -68 -98 -84
0 -93 -57 -634 -90 -856 -11 -74 -17 -138 -13 -142 23 -23 553 -165 794 -213
307 -61 396 -70 689 -70 265 0 278 1 371 26 53 14 120 38 149 53 394 200 195
758 -530 1485 -161 161 -423 400 -439 400 -6 0 -12 -4 -16 -10z"/>
<path d="M26025 38988 c3 -24 12 -104 20 -178 8 -74 24 -208 36 -297 l22 -162
77 29 c75 28 376 149 512 207 38 15 68 30 68 33 0 3 -69 41 -153 85 -83 44
-249 135 -367 202 -118 68 -216 123 -217 123 -1 0 0 -19 2 -42z"/>
<path d="M28220 38983 c-102 -63 -444 -253 -557 -311 -51 -26 -93 -49 -93 -52
0 -10 617 -260 643 -260 14 0 41 169 72 460 8 74 16 152 19 173 2 20 1 37 -2
36 -4 0 -41 -21 -82 -46z"/>
<path d="M27080 38384 c-251 -117 -717 -312 -857 -358 -39 -13 -53 -23 -53
-36 0 -31 59 -305 100 -465 196 -763 469 -1281 744 -1411 68 -32 88 -37 151
-37 86 0 168 34 253 105 224 186 452 659 621 1283 41 151 121 501 121 529 0 8
-17 20 -37 27 -134 43 -519 201 -790 325 -90 41 -166 74 -170 73 -5 0 -42 -16
-83 -35z"/>
<path d="M31413 11932 c-70 -37 -111 -139 -100 -252 4 -52 164 -638 189 -697
22 -52 88 -138 123 -162 51 -34 110 -38 165 -9 36 19 51 35 75 83 29 58 30 65
30 195 0 104 -6 159 -24 240 -49 223 -137 434 -221 532 -70 81 -165 109 -237
70z"/>
<path d="M9661 45050 c-210 -231 -381 -424 -381 -429 0 -9 1601 -1462 1733
-1572 119 -100 294 -226 444 -321 72 -46 140 -88 150 -95 10 -6 -25 2 -77 18
-129 40 -329 92 -480 124 -107 22 -2887 498 -2962 507 -23 3 -72 -48 -433
-446 -333 -367 -404 -451 -393 -461 472 -434 3425 -3098 3434 -3099 17 -1 776
834 772 850 -3 9 -1452 1328 -1703 1549 -153 135 -321 254 -501 355 -60 34
-100 59 -89 56 11 -3 91 -26 178 -50 87 -25 220 -59 295 -75 75 -17 798 -127
1606 -246 l1469 -217 22 24 c80 82 745 823 745 829 0 9 -3431 3119 -3442 3119
-4 0 -178 -189 -387 -420z"/>
<path d="M45882 41426 c-705 -453 -1317 -849 -1359 -880 -361 -261 -590 -597
-675 -989 -19 -87 -22 -134 -23 -312 0 -181 3 -226 23 -325 100 -491 448
-1074 837 -1398 225 -188 462 -306 735 -367 102 -22 363 -31 484 -16 193 25
435 105 626 208 81 44 2640 1682 2669 1709 11 10 -38 92 -299 498 -172 268
-315 488 -319 490 -3 2 -474 -298 -1046 -666 -1273 -819 -1269 -817 -1433
-900 -191 -97 -328 -140 -467 -145 -123 -6 -200 9 -289 54 -214 108 -396 390
-398 617 -1 44 4 106 11 136 43 184 196 373 463 574 62 46 622 411 1243 811
622 400 1129 732 1129 739 -1 11 -604 957 -623 979 -4 4 -584 -364 -1289 -817z"/>
<path d="M5504 41164 c-93 -168 -170 -311 -172 -318 -1 -6 122 -80 274 -164
211 -117 279 -150 285 -140 5 7 43 77 86 155 43 78 81 143 85 143 3 0 33 -27
66 -59 72 -73 123 -171 157 -306 40 -156 45 -145 -92 -214 -437 -219 -771
-567 -1019 -1061 -297 -593 -341 -1158 -138 -1768 43 -127 150 -354 222 -470
239 -385 594 -693 1073 -931 561 -280 1107 -346 1674 -205 567 141 995 445
1324 939 211 318 350 667 408 1020 24 153 24 476 -1 635 -84 539 -347 1032
-735 1377 -349 311 -808 553 -1238 654 -324 75 -707 77 -1023 5 -58 -13 -113
-27 -122 -31 -13 -5 -18 1 -23 32 -53 331 -165 568 -317 675 -53 38 -587 338
-600 338 -2 0 -80 -138 -174 -306z m1926 -1799 c297 -65 632 -244 857 -458
357 -339 493 -822 346 -1230 -190 -530 -615 -825 -1157 -804 -77 3 -173 12
-212 21 -243 53 -510 176 -722 333 -377 278 -598 720 -554 1106 35 315 224
652 470 838 128 97 310 173 486 204 106 19 382 13 486 -10z"/>
<path d="M4738 40006 c-322 -94 -590 -175 -594 -179 -7 -7 -175 -829 -170
-834 5 -7 1263 731 1268 745 9 22 90 433 86 436 -2 2 -267 -74 -590 -168z"/>
<path d="M49643 37528 c-120 -144 -543 -654 -940 -1133 l-721 -870 -978 -363
c-538 -200 -979 -364 -980 -365 -4 -4 397 -1082 406 -1091 5 -5 421 144 983
353 535 198 982 361 993 361 10 -1 665 -110 1454 -244 789 -134 1436 -243
1438 -241 2 2 -99 279 -224 617 l-228 614 -731 64 c-401 34 -799 66 -883 69
l-153 6 98 89 c54 48 335 330 625 626 l527 538 -225 609 c-125 334 -230 612
-234 616 -4 5 -106 -110 -227 -255z"/>
<path d="M3195 36876 c-44 -129 -196 -679 -189 -685 5 -5 135 -45 289 -90 154
-45 287 -84 296 -87 13 -3 25 27 64 163 27 93 50 170 52 173 2 2 29 -8 59 -24
86 -45 182 -156 243 -279 57 -115 72 -163 50 -155 -39 15 -341 99 -343 96 -11
-14 -324 -1113 -319 -1118 5 -4 568 -170 1253 -370 685 -200 1310 -385 1390
-413 408 -139 622 -300 710 -532 34 -90 39 -242 11 -357 -57 -239 -166 -391
-344 -478 -191 -92 -429 -92 -797 0 -63 16 -677 194 -1364 395 -688 201 -1255
365 -1262 365 -7 0 -17 -15 -22 -32 -5 -18 -78 -268 -162 -556 -90 -307 -150
-526 -144 -531 17 -15 2937 -863 3053 -886 723 -148 1323 96 1718 697 265 403
436 1051 403 1518 -48 659 -403 1137 -1030 1385 -63 26 -630 197 -1260 381
-630 185 -1145 336 -1146 337 0 1 -6 29 -13 62 -48 222 -168 483 -303 652 -54
69 -149 145 -218 176 -80 36 -671 205 -675 193z"/>
<path d="M49315 32173 c-1248 -178 -2272 -326 -2274 -329 -5 -5 488 -3495 495
-3503 3 -4 925 127 930 132 2 2 -71 525 -161 1163 -91 637 -164 1166 -163
1174 3 11 103 29 468 81 256 37 467 65 469 63 2 -1 78 -529 169 -1171 91 -642
167 -1170 169 -1172 4 -6 876 119 883 125 2 3 -69 519 -158 1147 -90 628 -164
1156 -165 1172 l-2 30 465 67 c255 37 466 65 468 64 1 -2 77 -529 169 -1172
91 -643 168 -1171 170 -1173 2 -2 203 24 447 59 l445 63 -5 26 c-6 31 -494
3466 -494 3475 0 3 -12 5 -27 5 -16 -1 -1049 -147 -2298 -326z"/>
<path d="M51983 31799 c4 -19 18 -113 32 -209 14 -96 27 -184 30 -195 3 -14
74 -64 222 -155 120 -74 267 -164 326 -201 l108 -67 -255 -287 c-206 -230
-255 -291 -251 -308 3 -12 18 -111 34 -220 16 -109 31 -201 34 -203 8 -8 1002
716 1001 729 0 6 -25 177 -55 379 l-54 366 -575 198 c-316 108 -581 200 -589
202 -11 4 -12 -2 -8 -29z"/>
<path d="M3485 30639 c-308 -48 -558 -177 -767 -397 -223 -235 -370 -555 -433
-942 -18 -111 -153 -1926 -144 -1933 7 -7 4622 -337 4628 -332 8 9 89 1149 82
1156 -3 3 -441 37 -973 75 -533 38 -968 71 -968 74 0 3 453 198 1008 434 554
235 1008 429 1010 431 4 3 103 1379 100 1392 -2 6 -446 -229 -988 -523 -542
-293 -988 -533 -992 -534 -5 0 -8 27 -8 60 0 32 -9 103 -19 157 -89 452 -410
753 -926 863 -81 18 -142 22 -325 25 -124 2 -252 0 -285 -6z m476 -1194 c140
-29 236 -82 323 -176 85 -92 129 -199 146 -359 8 -76 -16 -518 -29 -532 -3 -3
-276 13 -606 38 -330 24 -615 44 -634 44 l-34 0 7 128 c4 70 11 171 17 225 45
449 270 672 654 651 50 -3 120 -12 156 -19z"/>
<path d="M47596 27428 c-8 -37 -99 -1118 -95 -1122 2 -3 528 -50 1169 -106
l1165 -102 250 6 c157 3 282 11 335 20 47 9 92 16 100 15 8 0 -70 -34 -175
-75 -104 -41 -257 -108 -340 -148 -169 -82 -2644 -1441 -2660 -1461 -12 -14
-111 -1133 -101 -1142 8 -8 4613 -409 4620 -402 6 5 105 1132 101 1137 -2 2
-515 48 -1142 103 -1331 116 -1418 119 -1883 74 l-55 -6 90 34 c161 60 277
109 435 182 151 70 2685 1387 2705 1406 9 9 117 1200 110 1208 -5 4 -4542 400
-4592 401 -26 0 -34 -5 -37 -22z"/>
<path d="M2621 26189 c-250 -27 -456 -51 -459 -54 -7 -7 331 -3213 340 -3228
5 -8 137 3 470 37 255 27 464 49 465 50 0 0 -24 234 -54 519 -30 286 -53 520
-51 522 2 1 829 89 1838 196 1009 106 1836 194 1838 195 4 2 -117 1157 -121
1160 -1 1 -823 -86 -1827 -192 -1004 -106 -1832 -193 -1840 -194 -13 0 -24 86
-70 520 -34 329 -58 520 -64 519 -6 -1 -215 -23 -465 -50z"/>
<path d="M6066 18624 c26 -232 121 -1311 116 -1316 -4 -4 -286 -127 -627 -273
-341 -147 -621 -268 -622 -269 -1 -1 296 -68 660 -150 364 -82 665 -152 668
-155 4 -3 35 -310 69 -681 34 -371 63 -676 63 -676 1 -1 159 263 351 586 l348
588 57 -13 c325 -76 1264 -285 1267 -282 2 2 -197 232 -442 511 -278 316 -444
512 -440 521 3 8 157 270 342 582 185 312 339 571 341 575 6 11 22 18 -637
-266 -327 -141 -599 -257 -606 -259 -6 -1 -210 225 -454 503 -243 278 -446
509 -451 514 -5 5 -6 -12 -3 -40z"/>
<path d="M47815 18155 c-390 -445 -452 -512 -470 -505 -11 5 -292 125 -625
269 -332 143 -605 259 -607 258 -1 -1 155 -266 346 -587 l347 -585 -281 -320
c-155 -176 -356 -405 -448 -510 -91 -104 -165 -191 -163 -193 3 -3 1283 282
1313 293 6 2 163 -252 359 -583 l349 -586 7 44 c3 25 32 329 64 675 31 347 60
633 63 636 3 3 304 73 668 155 364 82 661 149 660 150 -1 1 -281 122 -622 269
-341 146 -623 269 -626 273 -4 4 22 311 56 682 35 371 62 676 62 676 -1 1
-204 -229 -452 -511z"/>
<path d="M11395 10775 c-528 -1223 -960 -2231 -960 -2239 0 -18 835 -737 852
-734 21 5 4122 2573 4120 2580 -1 4 -201 178 -444 387 l-443 380 -1102 -764
c-1070 -741 -1303 -912 -1555 -1135 -57 -49 -105 -90 -107 -90 -3 0 42 78 99
173 153 258 240 418 409 762 85 171 354 712 600 1202 l446 893 -472 405 c-259
223 -474 405 -477 405 -3 0 -438 -1001 -966 -2225z"/>
<path d="M42380 12969 c-511 -58 -1000 -300 -1432 -711 -148 -141 -308 -337
-415 -509 -318 -510 -422 -1173 -277 -1768 102 -418 343 -829 689 -1177 212
-212 412 -357 660 -479 312 -153 589 -220 955 -232 211 -7 364 5 550 43 713
143 1417 698 1750 1379 133 271 202 532 226 850 l6 91 -483 27 c-266 16 -511
31 -545 34 l-61 5 -6 -143 c-4 -108 -11 -168 -31 -242 -73 -281 -265 -540
-541 -727 -312 -211 -673 -263 -1034 -148 -321 102 -610 331 -826 653 -163
243 -235 473 -236 751 -2 336 111 596 370 855 190 189 370 294 606 355 98 25
128 28 272 28 l163 1 5 30 c2 17 11 208 20 425 8 217 18 446 22 508 l6 112
-169 -1 c-93 -1 -203 -5 -244 -10z"/>
<path d="M16115 11191 c-83 -24 -142 -52 -227 -106 -101 -65 -268 -206 -268
-226 0 -8 254 -174 281 -184 9 -3 40 9 73 29 32 19 82 40 112 47 119 27 197
-25 418 -279 202 -230 284 -293 433 -328 166 -39 363 18 566 164 83 60 217
178 217 192 0 4 -65 49 -145 100 l-145 92 -39 -31 c-61 -48 -139 -81 -195 -81
-98 0 -168 53 -356 270 -191 220 -290 301 -418 340 -82 25 -222 26 -307 1z"/>
<path d="M37465 11070 c-219 -70 -403 -133 -407 -141 -11 -20 -212 -1198 -205
-1205 6 -6 416 121 428 133 10 10 591 1335 587 1338 -2 1 -183 -55 -403 -125z"/>
<path d="M38451 10131 c-276 -159 -504 -291 -507 -294 -3 -3 290 -520 652
-1149 362 -629 692 -1210 734 -1293 118 -234 180 -435 180 -585 0 -254 -150
-462 -424 -591 -204 -95 -387 -88 -572 22 -75 44 -220 183 -299 284 -111 142
-182 262 -845 1415 -358 624 -658 1145 -666 1157 -13 21 -22 16 -515 -267
-276 -159 -505 -292 -510 -297 -6 -6 1251 -2209 1507 -2640 267 -449 625 -724
1075 -825 93 -20 129 -23 334 -23 199 1 244 4 331 23 289 63 535 163 815 333
590 357 919 821 969 1369 27 295 -41 613 -200 930 -27 52 -388 685 -803 1407
l-754 1312 -502 -288z"/>
<path d="M14464 8323 c-687 -1077 -1248 -1960 -1248 -1963 2 -8 978 -629 989
-630 8 0 2492 3880 2503 3909 2 6 -957 626 -988 639 -3 1 -569 -878 -1256
-1955z"/>
<path d="M17284 9154 c-9 -22 -416 -984 -906 -2138 -489 -1155 -885 -2103
-881 -2107 11 -10 1054 -451 1058 -447 12 14 925 2187 955 2274 47 137 94 322
118 469 l19 110 7 -125 c11 -185 34 -432 51 -539 16 -95 555 -2914 558 -2917
6 -6 1048 -444 1054 -444 14 0 1817 4270 1807 4280 -9 8 -1048 450 -1050 447
-10 -13 -872 -2061 -910 -2162 -65 -171 -123 -371 -168 -570 l-33 -149 -7 124
c-9 174 -24 344 -42 485 -21 172 -493 2968 -502 2976 -6 5 -1043 446 -1095
465 -13 5 -21 -3 -33 -32z"/>
<path d="M34550 8106 l-545 -172 3 -29 c1 -17 121 -406 266 -865 145 -459 260
-839 256 -843 -7 -8 -1402 -449 -1405 -444 -1 1 -122 387 -270 857 -147 470
-270 860 -274 866 -4 6 -162 -39 -441 -127 -239 -75 -488 -154 -552 -174 -65
-20 -118 -42 -118 -48 0 -17 1381 -4411 1389 -4419 6 -7 1089 328 1104 342 5
4 -117 410 -272 901 -154 491 -279 895 -276 897 6 7 1406 444 1409 441 1 -2
128 -404 281 -893 154 -488 284 -890 290 -893 10 -3 1094 333 1104 343 7 7
-1385 4428 -1395 4430 -5 2 -254 -75 -554 -170z"/>
<path d="M21736 7398 c-13 -38 -798 -4559 -793 -4564 7 -7 1138 -207 1142
-202 2 2 73 406 159 898 86 492 159 907 162 923 4 19 12 27 27 27 32 -1 1427
-246 1433 -253 3 -3 -67 -420 -156 -927 -89 -507 -160 -924 -158 -925 5 -5
1142 -204 1146 -201 10 10 800 4571 792 4576 -23 14 -1133 201 -1139 192 -3
-6 -76 -409 -161 -897 -148 -849 -155 -886 -175 -882 -11 3 -338 60 -727 128
-664 116 -708 125 -708 144 0 11 70 414 154 895 85 481 153 876 152 878 -2 1
-248 45 -547 97 -299 52 -556 98 -572 101 -18 4 -29 1 -31 -8z"/>
<path d="M29585 6913 c-16 -2 -403 -42 -860 -90 -456 -47 -832 -88 -834 -89
-5 -5 481 -4608 488 -4616 4 -5 1148 110 1158 116 0 1 -35 338 -78 750 -44
412 -78 751 -75 753 2 2 107 15 232 28 286 31 404 49 552 85 445 109 750 316
935 635 124 215 186 518 174 850 -13 347 -76 615 -202 852 -217 410 -626 671
-1134 722 -97 10 -289 12 -356 4z m80 -957 c203 -55 335 -187 395 -396 31
-104 39 -317 16 -414 -48 -205 -201 -351 -434 -415 -76 -21 -349 -58 -358 -48
-6 6 -134 1193 -134 1243 l0 32 93 10 c128 14 348 8 422 -12z"/>
</g>
</svg>
